<svg preserveAspectRatio="none" data-bbox="35.35 35.4 496.2 496.1" viewBox="35.35 35.4 496.2 496.1" height="566.9" width="566.9" xmlns="http://www.w3.org/2000/svg" data-type="shape" role="presentation" aria-hidden="true">
    <g>
        <path style="fill:#FFFFFF;" d="M458.85 108c-46.9-46.8-109.2-72.6-175.4-72.6s-128.6 25.8-175.4 72.6c-46.9 46.9-72.7 109.2-72.7 175.4 0 66.3 25.8 128.6 72.7 175.4 46.9 46.9 109.2 72.7 175.4 72.7s128.6-25.8 175.4-72.7c46.9-46.9 72.7-109.1 72.7-175.4-.1-66.2-25.9-128.5-72.7-175.4zm-3.5 347.3c-45.9 45.9-107 71.2-171.9 71.2s-126-25.3-171.9-71.2-71.2-107-71.2-171.9 25.3-126 71.2-171.9 107-71.2 171.9-71.2 126 25.3 171.9 71.2 71.2 107 71.2 171.9-25.3 126-71.2 171.9z"></path>
        <path style="fill:#FFFFFF;" d="M165.75 311.9l3.1 3.9 116.9-93.9 112.2 93.8 3.2-3.8-115.4-96.4-120 96.4z"></path>
    </g>
</svg>